# xmcd
#
# Track frame offsets: 
#        150
#        19841
#        36506
#        57525
#        74924
#        96630
#        117685
#        135806
#        156856
#        173954
#        190978
#        220038
#
# Disc length: 4440 seconds
#
# Revision: 1
# Processed by: cddbd v1.5.2PL0 Copyright (c) Steve Scherf et al.
# Submitted via: ExactAudioCopy v1.0b3
#
DISCID=bd11560c
DTITLE=蕭亞軒 (Elva Hsiao) - 第5大道
DYEAR=2004
DGENRE=Taiwan
TTITLE0=愛情通關密語
TTITLE1=節奏與布魯士
TTITLE2=地下鐵
TTITLE3=來自第五大道的明信片
TTITLE4=失去你
TTITLE5=幸福的地圖(舞曲版)
TTITLE6=因為愛
TTITLE7=靜靜的看你
TTITLE8=相對無言
TTITLE9=你是我心中一句驚嘆
TTITLE10=幸福的地圖
TTITLE11=Data
EXTD=
EXTT0=
EXTT1=
EXTT2=
EXTT3=
EXTT4=
EXTT5=
EXTT6=
EXTT7=
EXTT8=
EXTT9=
EXTT10=
EXTT11=
PLAYORDER=
